<svg width="55" height="55" viewBox="0 0 55 55" fill="none" xmlns="http://www.w3.org/2000/svg">
<path fill-rule="evenodd" clip-rule="evenodd" d="M20 2H35C44.9411 2 53 10.0589 53 20V35C53 44.9411 44.9411 53 35 53H20C10.0589 53 2 44.9411 2 35V20C2 10.0589 10.0589 2 20 2ZM0 20C0 8.95431 8.95431 0 20 0H35C46.0457 0 55 8.95431 55 20V35C55 46.0457 46.0457 55 35 55H20C8.95431 55 0 46.0457 0 35V20ZM40.0397 13.816C40.5525 14.0211 40.8019 14.6031 40.5968 15.1159L38.3817 20.6536C38.4594 21.1128 38.4306 21.6005 38.272 22.0848L35.4347 30.7515C35.0311 31.9843 33.8808 32.8181 32.5836 32.8181H19.647C18.3498 32.8181 17.1995 31.9843 16.7959 30.7515L13.9586 22.0848C13.3236 20.1452 14.7688 18.1514 16.8097 18.1514H35.4209C36.0257 18.1514 36.5782 18.3265 37.0397 18.6234L38.7399 14.3731C38.945 13.8603 39.5269 13.6109 40.0397 13.816ZM36.3954 21.3766C36.2507 21.1537 36.1964 20.8763 36.2592 20.6061C36.0835 20.3364 35.7798 20.1514 35.4209 20.1514H16.8097C16.1294 20.1514 15.6476 20.816 15.8593 21.4626L18.6966 30.1292C18.8311 30.5402 19.2146 30.8181 19.647 30.8181H32.5836C33.016 30.8181 33.3995 30.5402 33.534 30.1292L36.3713 21.4626C36.3807 21.4339 36.3887 21.4052 36.3954 21.3766ZM21.3889 39.5557C22.6469 39.5557 23.6666 38.5359 23.6666 37.2779C23.6666 36.0199 22.6469 35.0001 21.3889 35.0001C20.1309 35.0001 19.1111 36.0199 19.1111 37.2779C19.1111 38.5359 20.1309 39.5557 21.3889 39.5557ZM21.3889 41.5557C23.7514 41.5557 25.6666 39.6405 25.6666 37.2779C25.6666 34.9154 23.7514 33.0001 21.3889 33.0001C19.0263 33.0001 17.1111 34.9154 17.1111 37.2779C17.1111 39.6405 19.0263 41.5557 21.3889 41.5557ZM33.4445 37.2777C33.4445 38.5357 32.4247 39.5555 31.1667 39.5555C29.9087 39.5555 28.8889 38.5357 28.8889 37.2777C28.8889 36.0198 29.9087 35 31.1667 35C32.4247 35 33.4445 36.0198 33.4445 37.2777ZM35.4445 37.2777C35.4445 39.6403 33.5292 41.5555 31.1667 41.5555C28.8041 41.5555 26.8889 39.6403 26.8889 37.2777C26.8889 34.9152 28.8041 33 31.1667 33C33.5292 33 35.4445 34.9152 35.4445 37.2777Z" fill="#7B954E"/>
</svg>
