<svg width="53" height="40" viewBox="0 0 53 40" fill="none" xmlns="http://www.w3.org/2000/svg">
<path fill-rule="evenodd" clip-rule="evenodd" d="M2.93786 10.8948L11.3572 2.81826C12.5528 1.67128 14.4914 1.67128 15.687 2.81826L19.107 6.09899C18.1048 6.23584 17.1362 6.6588 16.3455 7.36878C16.2071 7.47107 16.0741 7.58303 15.9473 7.70467L8.24958 15.089C8.08945 15.2426 7.93851 15.4017 7.79676 15.5656C6.99851 16.3338 6.52173 17.2926 6.36538 18.2882L6.35553 18.327L2.93785 15.0484C1.7422 13.9015 1.7422 12.0418 2.93786 10.8948ZM21.4027 9.58648C21.4303 9.58203 21.4577 9.5765 21.4848 9.56988C21.6768 9.53369 21.8752 9.51472 22.0783 9.51472H31.249C31.5197 9.51472 31.7792 9.41157 31.9706 9.22797L32.115 9.08952C32.8264 8.40703 33.9324 8.33369 34.7286 8.86949L43.0761 16.8771C43.5287 17.4186 43.8439 18.0309 44.0215 18.671C44.0741 19.0927 44.0314 19.5236 43.8932 19.9318C43.7814 20.2622 43.8608 20.623 44.0981 20.8813C43.9098 21.8029 43.4435 22.6825 42.6992 23.3965L29.8074 35.7635C28.4207 37.0937 26.4345 37.4983 24.6831 36.9772C24.9304 36.9677 25.1748 36.8724 25.3637 36.6912L32.3307 30.0078C32.7293 29.6255 32.7293 29.0056 32.3307 28.6233C31.9322 28.2409 31.286 28.2409 30.8874 28.6233L23.9204 35.3067C23.5271 35.684 23.5219 36.2926 23.9048 36.676C23.431 36.4471 22.9866 36.143 22.591 35.7635L17.0582 30.456C15.0655 28.5443 15.0655 25.445 17.0582 23.5333L23.8085 17.0578C24.1004 16.7778 24.1877 16.3567 24.0298 15.9909C23.8718 15.6251 23.4997 15.3865 23.0869 15.3865H22.0783C20.388 15.3865 19.0178 14.0721 19.0178 12.4506C19.0178 11.0518 20.0375 9.88154 21.4027 9.58648ZM22.1827 7.55669C22.34 7.38006 22.4274 7.15468 22.4274 6.92066C22.4274 6.66101 22.3198 6.412 22.1284 6.2284L17.1303 1.43373C15.1376 -0.477912 11.9066 -0.477908 9.91389 1.43373L1.49457 9.51032C-0.498188 11.422 -0.498192 14.5213 1.49457 16.433L6.2413 20.9865C6.46491 22.3753 7.13433 23.7109 8.24957 24.7807L14.6955 30.9642L17.3894 33.5485C17.4117 33.5699 17.4348 33.5901 17.4586 33.6091L21.1477 37.148C23.9376 39.8243 28.4608 39.8243 31.2507 37.148L44.1425 24.781C45.2578 23.7111 45.9272 22.3755 46.1508 20.9866L50.8977 16.433C52.8904 14.5213 52.8904 11.422 50.8977 9.51032L42.4784 1.43373C40.4856 -0.477908 37.2547 -0.477912 35.2619 1.43373L30.2638 6.2284C30.0724 6.412 29.9649 6.66101 29.9649 6.92066C29.9649 7.15468 30.0522 7.38006 30.2096 7.55669L22.1827 7.55669ZM13.523 27.0704C13.5026 25.2914 14.1999 23.5062 15.6149 22.1488L20.7877 17.1866C18.5951 16.6383 16.9767 14.7257 16.9767 12.4506C16.9767 10.8434 17.7844 9.41707 19.0316 8.52487C18.5579 8.48089 18.0713 8.59529 17.6651 8.86806L9.31399 16.8792C8.86275 17.4197 8.54839 18.0306 8.3709 18.6693C8.31804 19.0915 8.36062 19.523 8.499 19.9318C8.61085 20.2622 8.53144 20.6231 8.29406 20.8814C8.48244 21.8028 8.9487 22.6823 9.69286 23.3962L13.523 27.0704ZM49.4544 10.8948L41.0351 2.81826C39.8394 1.67128 37.9009 1.67128 36.7052 2.81826L33.2853 6.09899C34.2887 6.236 35.2583 6.65979 36.0496 7.37127C36.1868 7.47297 36.3189 7.58421 36.4448 7.70498L44.1425 15.0893C44.3017 15.242 44.4518 15.4002 44.5929 15.5631C45.3934 16.3324 45.8711 17.2931 46.0273 18.2907L46.0365 18.3272L49.4544 15.0484C50.65 13.9015 50.65 12.0418 49.4544 10.8948ZM17.6131 29.257C17.2146 29.6393 17.2146 30.2592 17.6131 30.6415C18.0117 31.0238 18.6579 31.0238 19.0564 30.6415L26.0235 23.9581C26.422 23.5757 26.422 22.9559 26.0235 22.5735C25.6249 22.1912 24.9788 22.1912 24.5802 22.5735L17.6131 29.257ZM20.7671 33.6664C20.3686 33.2841 20.3686 32.6642 20.7671 32.2819L27.7342 25.5984C28.1328 25.2161 28.7789 25.2161 29.1775 25.5984C29.576 25.9807 29.576 26.6006 29.1775 26.9829L22.2104 33.6664C21.8119 34.0487 21.1657 34.0487 20.7671 33.6664Z" fill="#7B954E"/>
</svg>
