<svg width="42" height="46" viewBox="0 0 42 46" fill="none" xmlns="http://www.w3.org/2000/svg">
<path fill-rule="evenodd" clip-rule="evenodd" d="M20.8259 1.35418C21.5588 0.523756 22.6312 0 23.8259 0H29.1098C31.3189 0 33.1098 1.79086 33.1098 4V9.28388C33.1098 10.0123 32.9151 10.6953 32.5748 11.2836H39.6509C40.7555 11.2836 41.6509 12.179 41.6509 13.2836V19.9951C41.6509 21.0997 40.7555 21.9951 39.6509 21.9951H38.6168V43.7739C38.6168 44.8785 37.7214 45.7739 36.6168 45.7739H5.03403C3.92946 45.7739 3.03403 44.8785 3.03403 43.7739V21.9951H2C0.89543 21.9951 0 21.0997 0 19.9951V13.2836C0 12.179 0.89543 11.2836 2 11.2836H9.07699C8.73676 10.6953 8.54203 10.0123 8.54203 9.28388V4C8.54203 1.79086 10.3329 0 12.542 0H17.8259C19.0206 0 20.093 0.523756 20.8259 1.35418ZM21.8259 4V11.2836H29.1437C30.2326 11.2655 31.1098 10.3771 31.1098 9.28388V4C31.1098 2.89543 30.2144 2 29.1098 2H23.8259C22.7213 2 21.8259 2.89543 21.8259 4ZM12.494 13.2836C12.51 13.2838 12.526 13.2839 12.542 13.2839H19.8259V19.9951H5.03403H2V13.2836H12.494ZM19.8259 11.2836V4C19.8259 2.89543 18.9305 2 17.8259 2H12.542C11.4375 2 10.542 2.89543 10.542 4V9.28388C10.542 10.3771 11.4192 11.2655 12.5081 11.2836H19.8259ZM29.1098 13.2839H21.8259V19.9951H36.6168H39.6509V13.2836H29.1577L29.1098 13.2839ZM19.8259 21.9951H5.03403V43.7739H19.8259V21.9951ZM21.8259 43.7739V21.9951H36.6168V43.7739H21.8259Z" fill="#7B954E"/>
</svg>
