<svg width="38" height="36" viewBox="0 0 38 36" fill="none" xmlns="http://www.w3.org/2000/svg">
<path d="M8.16711 31.9639L7.18524 31.7743L8.16711 31.9639ZM11.5872 33.7137L12.3154 34.3991L11.5872 33.7137ZM9.26924 26.2552L8.28737 26.0656L9.26924 26.2552ZM2 12C2 6.47715 6.47715 2 12 2V0C5.37258 0 0 5.37258 0 12H2ZM2 14.6108V12H0V14.6108H2ZM8.84433 24.1029C4.8666 22.7813 2 19.0295 2 14.6108H0C0 19.9166 3.44287 24.4157 8.21369 26.0009L8.84433 24.1029ZM9.14898 32.1534L10.2511 26.4447L8.28737 26.0656L7.18524 31.7743L9.14898 32.1534ZM10.859 33.0284C10.1725 33.7578 8.9591 33.1369 9.14898 32.1534L7.18524 31.7743C6.61561 34.7248 10.2559 36.5873 12.3154 34.3991L10.859 33.0284ZM18.1892 25.24L10.859 33.0284L12.3154 34.3991L19.6456 26.6108L18.1892 25.24ZM25.1582 24.6108H19.6456V26.6108H25.1582V24.6108ZM35.1582 14.6108C35.1582 20.1336 30.6811 24.6108 25.1582 24.6108V26.6108C31.7857 26.6108 37.1582 21.2382 37.1582 14.6108H35.1582ZM35.1582 12V14.6108H37.1582V12H35.1582ZM25.1582 2C30.6811 2 35.1582 6.47715 35.1582 12H37.1582C37.1582 5.37258 31.7857 0 25.1582 0V2ZM12 2H25.1582V0H12V2ZM19.6456 26.6108V24.6108C19.0942 24.6108 18.5672 24.8385 18.1892 25.24L19.6456 26.6108ZM8.21369 26.0009C8.24613 26.0117 8.26919 26.0325 8.28079 26.051C8.28602 26.0593 8.28726 26.0645 8.28744 26.0655C8.28747 26.0656 8.28752 26.0648 8.28737 26.0656L10.2511 26.4447C10.458 25.3732 9.77697 24.4128 8.84433 24.1029L8.21369 26.0009Z" fill="#F3E782"/>
</svg>
