<svg width="57" height="54" viewBox="0 0 57 54" fill="none" xmlns="http://www.w3.org/2000/svg">
<path d="M17.9823 1L1.38549 13.9278C1.14224 14.1173 1 14.4084 1 14.7167V50.7325C1 51.6017 2.0325 52.0571 2.67435 51.4709L17.9823 37.4912M17.9823 1V37.4912M17.9823 1L44 14.2281M17.9823 37.4912L44 53M44 14.2281V53M44 14.2281L54.2593 2.91879C54.8738 2.24143 56 2.67613 56 3.59068V37.1495C56 37.371 55.9264 37.5863 55.7909 37.7615L44 53M27.1591 21.5446L35.7385 29.3715M27.1591 29.3715L35.7385 21.5446" stroke="#F3E782" stroke-width="2" stroke-linecap="round" stroke-linejoin="round"/>
</svg>
