<svg width="52" height="55" viewBox="0 0 52 55" fill="none" xmlns="http://www.w3.org/2000/svg">
<path fill-rule="evenodd" clip-rule="evenodd" d="M43.8086 2.58691H8.19238C4.87868 2.58691 2.19238 5.27319 2.19238 8.58689V46.4151C2.19238 49.7288 4.87867 52.415 8.19238 52.415H8.96743C8.85692 52.1023 8.79679 51.7658 8.79679 51.4152L8.79679 39.0894C8.79679 34.6711 12.3785 31.0894 16.7968 31.0894H18.3068C16.6722 29.1848 15.6782 26.6696 15.6782 23.9124C15.6782 17.9668 20.3 13.147 26.0013 13.147C31.7025 13.147 36.3243 17.9668 36.3243 23.9124C36.3243 26.6696 35.3303 29.1848 33.6957 31.0894H35.208C39.6263 31.0894 43.208 34.6711 43.208 39.0893V51.4152C43.208 51.7658 43.1479 52.1023 43.0374 52.415H43.8085C47.1222 52.415 49.8085 49.7288 49.8085 46.4151V8.58689C49.8085 5.27319 47.1223 2.58691 43.8086 2.58691ZM20.6015 33.0894C22.1724 34.0968 24.0218 34.6778 26.0013 34.6778C27.9807 34.6778 29.8301 34.0968 31.401 33.0894H35.208C38.5217 33.0894 41.208 35.7757 41.208 39.0893V51.4152C41.208 51.9614 40.7701 52.4053 40.2263 52.415H11.7785C11.2346 52.4053 10.7968 51.9614 10.7968 51.4152L10.7968 39.0894C10.7968 35.7757 13.4831 33.0894 16.7968 33.0894H20.6015ZM30.7766 31.0894C32.9076 29.5172 34.3243 26.9152 34.3243 23.9124C34.3243 18.9915 30.5197 15.147 26.0013 15.147C21.4828 15.147 17.6782 18.9915 17.6782 23.9124C17.6782 26.9152 19.0949 29.5172 21.2259 31.0894L30.7766 31.0894ZM8.19238 54.415H11.7651L11.7968 54.4152H40.208L40.2397 54.415H43.8085C48.2268 54.415 51.8085 50.8333 51.8085 46.4151V8.58689C51.8085 4.16863 48.2268 0.586914 43.8086 0.586914H8.19238C3.7741 0.586914 0.192383 4.16863 0.192383 8.58689V46.4151C0.192383 50.8333 3.7741 54.415 8.19238 54.415Z" fill="#7B954E"/>
</svg>
