<svg width="40" height="40" viewBox="0 0 40 40" fill="none" xmlns="http://www.w3.org/2000/svg">
<path d="M36.5937 5.14019L35.8854 5.8461L35.8866 5.84729L36.5937 5.14019ZM5.18476 36.6367L5.89191 35.9295L5.88421 35.922L5.18476 36.6367ZM2.12178 33.5737L1.41467 34.2808L2.12178 33.5737ZM2.12178 29.3311L1.41467 28.624L2.12178 29.3311ZM6.65675 24.7961L7.36386 25.5032L7.36386 25.5032L6.65675 24.7961ZM24.7967 6.65577L24.0896 5.94867L24.7967 6.65577ZM29.3317 2.1208L30.0388 2.82791L30.0388 2.82791L29.3317 2.1208ZM33.5743 2.1208L32.8672 2.82791L33.5743 2.1208ZM5.12061 36.5725L5.82771 35.8654L5.12061 36.5725ZM5.12061 36.5732L5.82769 35.8661L5.12061 36.5732ZM5.82835 37.2803L6.53545 36.5732L5.82835 37.2803ZM5.92076 37.2775L6.53209 36.4862L5.92076 37.2775ZM36.5736 5.11995L35.8653 5.82586L36.5736 5.11995ZM37.302 4.43428L37.2819 4.41404L35.8653 5.82586L35.8854 5.8461L37.302 4.43428ZM37.9879 5.12011L37.3008 4.43308L35.8866 5.84729L36.5737 6.53432L37.9879 5.12011ZM37.2807 17.5305C40.6178 14.1934 40.8802 8.94757 38.0694 5.30889L36.4866 6.53155C38.6903 9.38423 38.4831 13.4997 35.8664 16.1163L37.2807 17.5305ZM17.531 37.2802L37.2807 17.5305L35.8664 16.1163L16.1168 35.8659L17.531 37.2802ZM5.30944 38.0689C8.94812 40.8797 14.1939 40.6173 17.531 37.2802L16.1168 35.8659C13.5002 38.4826 9.38476 38.6898 6.53209 36.4862L5.30944 38.0689ZM6.53545 36.5732L5.89187 35.9296L4.47765 37.3438L5.12124 37.9874L6.53545 36.5732ZM4.41352 37.2803C4.43731 37.3041 4.46124 37.3278 4.4853 37.3514L5.88421 35.922C5.86534 35.9035 5.8465 35.8849 5.82769 35.8661L4.41352 37.2803ZM5.82771 35.8654L2.82889 32.8666L1.41467 34.2808L4.4135 37.2796L5.82771 35.8654ZM2.82889 32.8666C2.04784 32.0856 2.04784 30.8192 2.82889 30.0382L1.41467 28.624C-0.147421 30.1861 -0.147424 32.7187 1.41467 34.2808L2.82889 32.8666ZM2.82888 30.0382L7.36386 25.5032L5.94965 24.089L1.41467 28.624L2.82888 30.0382ZM7.36386 25.5032C8.14491 24.7222 9.41124 24.7222 10.1923 25.5032L11.6065 24.089C10.0444 22.5269 7.51174 22.5269 5.94965 24.089L7.36386 25.5032ZM24.0896 16.1897L16.1903 24.089L17.6045 25.5032L25.5038 17.6039L24.0896 16.1897ZM24.0896 5.94867C22.5275 7.51076 22.5275 10.0434 24.0896 11.6055L25.5038 10.1913C24.7228 9.41026 24.7228 8.14393 25.5038 7.36288L24.0896 5.94867ZM28.6246 1.41369L24.0896 5.94867L25.5038 7.36288L30.0388 2.82791L28.6246 1.41369ZM34.2815 1.41369C32.7194 -0.148404 30.1867 -0.148404 28.6246 1.41369L30.0388 2.82791C30.8199 2.04686 32.0862 2.04686 32.8672 2.82791L34.2815 1.41369ZM37.2806 4.41285L34.2815 1.41369L32.8672 2.82791L35.8664 5.82706L37.2806 4.41285ZM25.5038 17.6039C27.5508 15.5569 27.5508 12.2382 25.5038 10.1913L24.0896 11.6055C25.3555 12.8714 25.3555 14.9238 24.0896 16.1897L25.5038 17.6039ZM10.1923 25.5032C12.2391 27.55 15.5577 27.55 17.6045 25.5032L16.1903 24.089C14.9245 25.3548 12.8723 25.3548 11.6065 24.089L10.1923 25.5032ZM35.8664 5.82706C36.2569 6.21759 36.8901 6.21759 37.2806 5.82706L35.8664 4.41285C36.2569 4.02233 36.8901 4.02233 37.2806 4.41285L35.8664 5.82706ZM5.82771 37.28C6.21833 36.8894 6.21833 36.256 5.82771 35.8654L4.4135 37.2796C4.02307 36.8892 4.02307 36.2562 4.4135 35.8658L5.82771 37.28ZM5.82769 35.8661C6.21812 36.2565 6.21817 36.8895 5.82771 37.28L4.4135 35.8658C4.02285 36.2564 4.0229 36.8898 4.41352 37.2803L5.82769 35.8661ZM36.5737 5.16813C36.2013 5.54046 36.1725 6.12494 36.4866 6.53155L38.0694 5.30889C38.3625 5.68839 38.336 6.23423 37.9879 6.58234L36.5737 5.16813ZM5.16895 36.5732C5.5463 36.1958 6.1581 36.1958 6.53545 36.5732L5.12124 37.9874C5.52494 38.3911 6.17947 38.3911 6.58317 37.9874L5.16895 36.5732ZM36.5737 6.53432C36.1964 6.15706 36.1964 5.54539 36.5737 5.16813L37.9879 6.58234C38.3916 6.17855 38.3916 5.52389 37.9879 5.12011L36.5737 6.53432ZM6.53209 36.4862C6.12557 36.1721 5.54121 36.2009 5.16895 36.5732L6.58317 37.9874C6.23498 38.3356 5.68902 38.3621 5.30944 38.0689L6.53209 36.4862ZM37.2819 4.41404C36.8916 4.02241 36.2574 4.02182 35.8664 4.41285L37.2806 5.82706C36.8896 6.21807 36.2556 6.21748 35.8653 5.82586L37.2819 4.41404Z" fill="#F0E267"/>
</svg>
